<mxfile host="app.diagrams.net" modified="2020-11-29T12:05:25.101Z" agent="5.0 (Windows)" etag="keT9Xkh130MnlUVBo4zw" version="13.10.4" type="github">
  <diagram id="ytkA-viACuRs2VQwhD0S" name="Page-1">
    <mxGraphModel dx="1184" dy="840" grid="1" gridSize="10" guides="1" tooltips="1" connect="1" arrows="1" fold="1" page="1" pageScale="1" pageWidth="827" pageHeight="1169" math="0" shadow="0">
      <root>
        <mxCell id="0" />
        <mxCell id="1" parent="0" />
        <mxCell id="Y96oXmgoo2yYL8wOywMU-12" style="edgeStyle=orthogonalEdgeStyle;rounded=0;orthogonalLoop=1;jettySize=auto;html=1;exitX=0.5;exitY=1;exitDx=0;exitDy=0;entryX=0.5;entryY=0;entryDx=0;entryDy=0;" edge="1" parent="1" source="Y96oXmgoo2yYL8wOywMU-1" target="Y96oXmgoo2yYL8wOywMU-2">
          <mxGeometry relative="1" as="geometry" />
        </mxCell>
        <mxCell id="Y96oXmgoo2yYL8wOywMU-1" value="Debut" style="ellipse;whiteSpace=wrap;html=1;" vertex="1" parent="1">
          <mxGeometry x="320" y="40" width="120" height="80" as="geometry" />
        </mxCell>
        <mxCell id="Y96oXmgoo2yYL8wOywMU-10" style="edgeStyle=orthogonalEdgeStyle;rounded=0;orthogonalLoop=1;jettySize=auto;html=1;exitX=1;exitY=0.5;exitDx=0;exitDy=0;entryX=0;entryY=0.5;entryDx=0;entryDy=0;" edge="1" parent="1" source="Y96oXmgoo2yYL8wOywMU-2" target="Y96oXmgoo2yYL8wOywMU-6">
          <mxGeometry relative="1" as="geometry" />
        </mxCell>
        <mxCell id="Y96oXmgoo2yYL8wOywMU-22" style="edgeStyle=orthogonalEdgeStyle;rounded=0;orthogonalLoop=1;jettySize=auto;html=1;exitX=0;exitY=0.5;exitDx=0;exitDy=0;entryX=0.583;entryY=0;entryDx=0;entryDy=0;entryPerimeter=0;" edge="1" parent="1" source="Y96oXmgoo2yYL8wOywMU-2" target="Y96oXmgoo2yYL8wOywMU-17">
          <mxGeometry relative="1" as="geometry" />
        </mxCell>
        <mxCell id="Y96oXmgoo2yYL8wOywMU-28" style="edgeStyle=orthogonalEdgeStyle;rounded=0;orthogonalLoop=1;jettySize=auto;html=1;exitX=0.75;exitY=1;exitDx=0;exitDy=0;entryX=0.25;entryY=0;entryDx=0;entryDy=0;" edge="1" parent="1" source="Y96oXmgoo2yYL8wOywMU-2" target="Y96oXmgoo2yYL8wOywMU-27">
          <mxGeometry relative="1" as="geometry" />
        </mxCell>
        <mxCell id="Y96oXmgoo2yYL8wOywMU-36" style="edgeStyle=orthogonalEdgeStyle;rounded=0;orthogonalLoop=1;jettySize=auto;html=1;exitX=0.5;exitY=1;exitDx=0;exitDy=0;" edge="1" parent="1" source="Y96oXmgoo2yYL8wOywMU-2" target="Y96oXmgoo2yYL8wOywMU-34">
          <mxGeometry relative="1" as="geometry">
            <Array as="points">
              <mxPoint x="400" y="230" />
              <mxPoint x="400" y="470" />
              <mxPoint x="474" y="470" />
            </Array>
          </mxGeometry>
        </mxCell>
        <mxCell id="Y96oXmgoo2yYL8wOywMU-37" style="edgeStyle=orthogonalEdgeStyle;rounded=0;orthogonalLoop=1;jettySize=auto;html=1;exitX=0.25;exitY=1;exitDx=0;exitDy=0;entryX=0.25;entryY=0;entryDx=0;entryDy=0;" edge="1" parent="1" source="Y96oXmgoo2yYL8wOywMU-2" target="Y96oXmgoo2yYL8wOywMU-8">
          <mxGeometry relative="1" as="geometry" />
        </mxCell>
        <mxCell id="Y96oXmgoo2yYL8wOywMU-2" value="Menu" style="rounded=0;whiteSpace=wrap;html=1;" vertex="1" parent="1">
          <mxGeometry x="320" y="170" width="120" height="60" as="geometry" />
        </mxCell>
        <mxCell id="Y96oXmgoo2yYL8wOywMU-29" style="edgeStyle=orthogonalEdgeStyle;rounded=0;orthogonalLoop=1;jettySize=auto;html=1;exitX=0.5;exitY=0;exitDx=0;exitDy=0;" edge="1" parent="1" source="Y96oXmgoo2yYL8wOywMU-5">
          <mxGeometry relative="1" as="geometry">
            <mxPoint x="380" y="150" as="targetPoint" />
            <Array as="points">
              <mxPoint x="120" y="150" />
            </Array>
          </mxGeometry>
        </mxCell>
        <mxCell id="Y96oXmgoo2yYL8wOywMU-5" value="Enregistrement du vecteur de données en mémoire" style="rounded=0;whiteSpace=wrap;html=1;" vertex="1" parent="1">
          <mxGeometry x="60" y="250" width="120" height="60" as="geometry" />
        </mxCell>
        <mxCell id="Y96oXmgoo2yYL8wOywMU-30" style="edgeStyle=orthogonalEdgeStyle;rounded=0;orthogonalLoop=1;jettySize=auto;html=1;exitX=0.5;exitY=0;exitDx=0;exitDy=0;" edge="1" parent="1" source="Y96oXmgoo2yYL8wOywMU-6">
          <mxGeometry relative="1" as="geometry">
            <mxPoint x="380" y="140" as="targetPoint" />
            <Array as="points">
              <mxPoint x="650" y="140" />
            </Array>
          </mxGeometry>
        </mxCell>
        <mxCell id="Y96oXmgoo2yYL8wOywMU-6" value="Affichage joueurs enregistrés" style="rounded=0;whiteSpace=wrap;html=1;" vertex="1" parent="1">
          <mxGeometry x="590" y="170" width="120" height="60" as="geometry" />
        </mxCell>
        <mxCell id="Y96oXmgoo2yYL8wOywMU-25" style="edgeStyle=orthogonalEdgeStyle;rounded=0;orthogonalLoop=1;jettySize=auto;html=1;exitX=0.5;exitY=1;exitDx=0;exitDy=0;entryX=0.5;entryY=0;entryDx=0;entryDy=0;" edge="1" parent="1" source="Y96oXmgoo2yYL8wOywMU-8" target="Y96oXmgoo2yYL8wOywMU-24">
          <mxGeometry relative="1" as="geometry" />
        </mxCell>
        <mxCell id="Y96oXmgoo2yYL8wOywMU-8" value="Déroulement du jeu" style="rounded=0;whiteSpace=wrap;html=1;" vertex="1" parent="1">
          <mxGeometry x="270" y="330" width="120" height="60" as="geometry" />
        </mxCell>
        <mxCell id="Y96oXmgoo2yYL8wOywMU-20" style="edgeStyle=orthogonalEdgeStyle;rounded=0;orthogonalLoop=1;jettySize=auto;html=1;exitX=0;exitY=0.5;exitDx=0;exitDy=0;entryX=0.5;entryY=1;entryDx=0;entryDy=0;" edge="1" parent="1" source="Y96oXmgoo2yYL8wOywMU-17" target="Y96oXmgoo2yYL8wOywMU-5">
          <mxGeometry relative="1" as="geometry">
            <mxPoint x="120" y="360" as="targetPoint" />
          </mxGeometry>
        </mxCell>
        <mxCell id="Y96oXmgoo2yYL8wOywMU-17" value="Ajout joueur au vecteur de données" style="rounded=0;whiteSpace=wrap;html=1;" vertex="1" parent="1">
          <mxGeometry x="140" y="480" width="120" height="60" as="geometry" />
        </mxCell>
        <mxCell id="Y96oXmgoo2yYL8wOywMU-26" style="edgeStyle=orthogonalEdgeStyle;rounded=0;orthogonalLoop=1;jettySize=auto;html=1;exitX=0.5;exitY=1;exitDx=0;exitDy=0;entryX=0.158;entryY=1.017;entryDx=0;entryDy=0;entryPerimeter=0;" edge="1" parent="1" source="Y96oXmgoo2yYL8wOywMU-24" target="Y96oXmgoo2yYL8wOywMU-5">
          <mxGeometry relative="1" as="geometry" />
        </mxCell>
        <mxCell id="Y96oXmgoo2yYL8wOywMU-24" value="Ajout des données modifiées de chaque joueur au vecteur de données" style="rounded=0;whiteSpace=wrap;html=1;" vertex="1" parent="1">
          <mxGeometry x="270" y="570" width="120" height="60" as="geometry" />
        </mxCell>
        <mxCell id="Y96oXmgoo2yYL8wOywMU-31" style="edgeStyle=orthogonalEdgeStyle;rounded=0;orthogonalLoop=1;jettySize=auto;html=1;exitX=0.5;exitY=1;exitDx=0;exitDy=0;" edge="1" parent="1" source="Y96oXmgoo2yYL8wOywMU-27">
          <mxGeometry relative="1" as="geometry">
            <mxPoint x="380" y="130" as="targetPoint" />
            <Array as="points">
              <mxPoint x="640" y="430" />
              <mxPoint x="740" y="430" />
              <mxPoint x="740" y="130" />
            </Array>
          </mxGeometry>
        </mxCell>
        <mxCell id="Y96oXmgoo2yYL8wOywMU-27" value="Affichage graphique des informations des cartes" style="rounded=0;whiteSpace=wrap;html=1;" vertex="1" parent="1">
          <mxGeometry x="580" y="330" width="120" height="60" as="geometry" />
        </mxCell>
        <mxCell id="Y96oXmgoo2yYL8wOywMU-34" value="Fin" style="ellipse;whiteSpace=wrap;html=1;" vertex="1" parent="1">
          <mxGeometry x="414" y="710" width="120" height="80" as="geometry" />
        </mxCell>
      </root>
    </mxGraphModel>
  </diagram>
</mxfile>
